HIERARCHY
ROOT hip
{
  OFFSET 0.0 0.0 0.0
  CHANNELS 6 Xposition Yposition Zposition Zrotation Yrotation Xrotation
  JOINT abdomen
  {
    OFFSET 0.0 20.6881 -0.73152
    CHANNELS 3 Zrotation Xrotation Yrotation
    JOINT chest
    {
      OFFSET 0.0 11.7043 -0.48768
      CHANNELS 3 Zrotation Xrotation Yrotation
      JOINT neck
      {
        OFFSET 0.0 22.1894 -2.19456
        CHANNELS 3 Zrotation Xrotation Yrotation
        JOINT head
        {
          OFFSET -0.24384 7.07133 1.2192
          CHANNELS 3 Zrotation Xrotation Yrotation
          JOINT leftEye
          {
            OFFSET 4.14528 8.04674 8.04672
            CHANNELS 3 Zrotation Xrotation Yrotation
            End Site
            {
              OFFSET 1.0 0.0 0.0
            }
          }
          JOINT rightEye
          {
            OFFSET -3.6576 8.04674 8.04672
            CHANNELS 3 Zrotation Xrotation Yrotation
            End Site
            {
              OFFSET 1.0 0.0 0.0
            }
          }
        }
      }
      JOINT rCollar
      {
        OFFSET -2.68224 19.2634 -4.8768
        CHANNELS 3 Zrotation Xrotation Yrotation
        JOINT rShldr
        {
          OFFSET -8.77824 -1.95073 1.46304
          CHANNELS 3 Zrotation Xrotation Yrotation
          JOINT rForeArm
          {
            OFFSET -28.1742 -1.7115 0.48768
            CHANNELS 3 Zrotation Xrotation Yrotation
            JOINT rHand
            {
              OFFSET -22.5879 0.773209 7.07136
              CHANNELS 3 Zrotation Xrotation Yrotation
              JOINT rThumb1
              {
                OFFSET -1.2192 -0.487915 3.41376
                CHANNELS 3 Zrotation Xrotation Yrotation
                JOINT rThumb2
                {
                  OFFSET -3.37035 -0.52449 3.41376
                  CHANNELS 3 Zrotation Xrotation Yrotation
                  End Site
                  {
                    OFFSET -1.78271 -1.18214 1.43049
                  }
                }
              }
              JOINT rIndex1
              {
                OFFSET -7.75947 0.938293 5.60832
                CHANNELS 3 Zrotation Xrotation Yrotation
                JOINT rIndex2
                {
                  OFFSET -2.54057 -0.884171 1.56538
                  CHANNELS 3 Zrotation Xrotation Yrotation
                  End Site
                  {
                    OFFSET -1.62519 -0.234802 1.16502
                  }
                }
              }
              JOINT rMid1
              {
                OFFSET -8.24714 1.18213 3.41376
                CHANNELS 3 Zrotation Xrotation Yrotation
                JOINT rMid2
                {
                  OFFSET -3.10165 -0.590103 1.0647
                  CHANNELS 3 Zrotation Xrotation Yrotation
                  End Site
                  {
                    OFFSET -2.48547 -0.328903 0.83742
                  }
                }
              }
              JOINT rRing1
              {
                OFFSET -8.82822 0.546677 1.51678
                CHANNELS 3 Zrotation Xrotation Yrotation
                JOINT rRing2
                {
                  OFFSET -2.60934 -0.819778 -0.0198488
                  CHANNELS 3 Zrotation Xrotation Yrotation
                  End Site
                  {
                    OFFSET -2.33842 -0.294052 0.168128
                  }
                }
              }
              JOINT rPinky1
              {
                OFFSET -8.27202 -0.0477905 -0.4584
                CHANNELS 3 Zrotation Xrotation Yrotation
                JOINT rPinky2
                {
                  OFFSET -1.82734 -0.647385 -0.700984
                  CHANNELS 3 Zrotation Xrotation Yrotation
                  End Site
                  {
                    OFFSET -1.69225 -0.51767 -0.607171
                  }
                }
              }
            }
          }
        }
      }
      JOINT lCollar
      {
        OFFSET 2.68224 19.2634 -4.8768
        CHANNELS 3 Zrotation Xrotation Yrotation
        JOINT lShldr
        {
          OFFSET 8.77824 -1.95073 1.46304
          CHANNELS 3 Zrotation Xrotation Yrotation
          JOINT lForeArm
          {
            OFFSET 28.1742 -1.7115 0.48768
            CHANNELS 3 Zrotation Xrotation Yrotation
            JOINT lHand
            {
              OFFSET 22.5879 0.773209 7.07136
              CHANNELS 3 Zrotation Xrotation Yrotation
              JOINT lThumb1
              {
                OFFSET 1.2192 -0.487915 3.41376
                CHANNELS 3 Zrotation Xrotation Yrotation
                JOINT lThumb2
                {
                  OFFSET 3.37035 -0.52449 3.41376
                  CHANNELS 3 Zrotation Xrotation Yrotation
                  End Site
                  {
                    OFFSET 1.78271 -1.18214 1.43049
                  }
                }
              }
              JOINT lIndex1
              {
                OFFSET 7.75947 0.938293 5.60832
                CHANNELS 3 Zrotation Xrotation Yrotation
                JOINT lIndex2
                {
                  OFFSET 2.54057 -0.884171 1.56538
                  CHANNELS 3 Zrotation Xrotation Yrotation
                  End Site
                  {
                    OFFSET 1.62519 -0.234802 1.16502
                  }
                }
              }
              JOINT lMid1
              {
                OFFSET 8.24714 1.18213 3.41376
                CHANNELS 3 Zrotation Xrotation Yrotation
                JOINT lMid2
                {
                  OFFSET 3.10165 -0.590103 1.0647
                  CHANNELS 3 Zrotation Xrotation Yrotation
                  End Site
                  {
                    OFFSET 2.48547 -0.328903 0.83742
                  }
                }
              }
              JOINT lRing1
              {
                OFFSET 8.82822 0.546677 1.51678
                CHANNELS 3 Zrotation Xrotation Yrotation
                JOINT lRing2
                {
                  OFFSET 2.60934 -0.819778 -0.0198488
                  CHANNELS 3 Zrotation Xrotation Yrotation
                  End Site
                  {
                    OFFSET 2.33842 -0.294052 0.168128
                  }
                }
              }
              JOINT lPinky1
              {
                OFFSET 8.27202 -0.0477905 -0.4584
                CHANNELS 3 Zrotation Xrotation Yrotation
                JOINT lPinky2
                {
                  OFFSET 1.82734 -0.647385 -0.700984
                  CHANNELS 3 Zrotation Xrotation Yrotation
                  End Site
                  {
                    OFFSET 1.69225 -0.51767 -0.607171
                  }
                }
              }
            }
          }
        }
      }
    }
  }
  JOINT rButtock
  {
    OFFSET -8.77824 4.35084 1.2192
    CHANNELS 3 Zrotation Xrotation Yrotation
    JOINT rThigh
    {
      OFFSET 0.0 -1.70687 -2.19456
      CHANNELS 3 Zrotation Xrotation Yrotation
      JOINT rShin
      {
        OFFSET 0.0 -36.8199 0.73152
        CHANNELS 3 Zrotation Xrotation Yrotation
        JOINT rFoot
        {
          OFFSET 0.73152 -45.1104 -5.12064
          CHANNELS 3 Zrotation Xrotation Yrotation
          End Site
          {
            OFFSET -1.1221 -3.69964 12.103
          }
        }
      }
    }
  }
  JOINT lButtock
  {
    OFFSET 8.77824 4.35084 1.2192
    CHANNELS 3 Zrotation Xrotation Yrotation
    JOINT lThigh
    {
      OFFSET 0.0 -1.70687 -2.19456
      CHANNELS 3 Zrotation Xrotation Yrotation
      JOINT lShin
      {
        OFFSET 0.0 -36.8199 0.73152
        CHANNELS 3 Zrotation Xrotation Yrotation
        JOINT lFoot
        {
          OFFSET -0.73152 -45.1104 -5.12064
          CHANNELS 3 Zrotation Xrotation Yrotation
          End Site
          {
            OFFSET 1.1221 -3.69964 12.103
          }
        }
      }
    }
  }
}
MOTION
Frames: 4
Frame Time: 0.00833333
-118.938 84.7332 -26.7235 266.054 85.7445 283.876 0.259487 29.2431 1.03215 -4.36239 -2.74672 0.617222 3.1119 20.1989 -1.21155 4.98299 -61.5422 1.72933 -0.0 0.0 0.0 -0.0 0.0 0.0 -7.50901e-14 -1.21181e-12 -8.41729e-14 81.7397 29.4367 2.74982 -13.443 -6.5135 24.4399 -0.0123376 3.16618 0.445437 -9.36928e-10 -5.60062e-10 3.54159e-09 -1.60566e-09 -9.68291e-10 6.12841e-09 -9.36921e-10 -5.60065e-10 3.54157e-09 7.73091 5.47488 0.417314 -9.36926e-10 -5.60064e-10 3.54158e-09 2.90554 0.965183 0.102902 -9.3692e-10 -5.60064e-10 3.54158e-09 10.2786 0.731801 0.0259123 -9.36933e-10 -5.60063e-10 3.54159e-09 2.22167 -0.733487 -0.20892 -7.51378e-14 -1.20464e-12 -8.44431e-14 -81.1691 22.2027 3.95718 13.2731 -6.38241 -24.1029 0.559176 -20.7526 3.05268 -6.23507e-10 -3.37406e-10 -4.20571e-09 -1.02305e-09 -5.94535e-10 -7.27954e-09 -6.23509e-10 -3.37404e-10 -4.2057e-09 -7.73091 5.47488 -0.417314 -6.23506e-10 -3.37406e-10 -4.20571e-09 -2.90554 0.965183 -0.102902 -6.23515e-10 -3.37405e-10 -4.2057e-09 -10.2786 0.731801 -0.0259123 -6.23499e-10 -3.37403e-10 -4.20571e-09 -2.22167 -0.733487 0.20892 -2.03217e-16 0.0 -3.88251e-19 4.54257 -13.9764 0.590088 -0.32395 32.3631 -0.0314652 1.23964 16.4539 -7.9493 2.03217e-16 0.0 3.88251e-19 3.98708 -51.3968 14.2043 0.288988 34.6373 0.255018 1.53522 16.1002 -4.21059
-118.153 84.6919 -26.8467 267.099 86.0643 285.156 -0.288556 29.1655 1.03279 -4.30074 -2.82279 0.573702 3.13993 20.1823 -1.21545 4.89017 -61.4821 1.65502 -0.0 0.0 0.0 -0.0 0.0 0.0 -1.17057e-13 -1.82818e-12 -1.1458e-13 81.7099 29.5439 2.82125 -13.4305 -6.50391 24.4151 -0.0126074 3.20209 0.4505 -3.8733e-10 -5.19554e-10 3.48879e-09 -6.55686e-10 -8.97527e-10 6.03469e-09 -3.87328e-10 -5.19558e-10 3.48878e-09 7.73091 5.47488 0.417314 -3.87329e-10 -5.19557e-10 3.48879e-09 2.90554 0.965183 0.102902 -3.87326e-10 -5.19557e-10 3.48879e-09 10.2786 0.731801 0.0259123 -3.87334e-10 -5.19555e-10 3.48879e-09 2.22167 -0.733487 -0.20892 -1.17098e-13 -1.82529e-12 -1.14894e-13 -81.0429 22.2428 3.83771 13.3336 -6.42883 -24.2229 0.562455 -20.8099 3.0619 -2.95823e-10 -4.15051e-10 -3.94117e-09 -4.60747e-10 -7.27076e-10 -6.81677e-09 -2.95825e-10 -4.15051e-10 -3.94116e-09 -7.73091 5.47488 -0.417314 -2.95823e-10 -4.15052e-10 -3.94118e-09 -2.90554 0.965183 -0.102902 -2.95831e-10 -4.1505e-10 -3.94116e-09 -10.2786 0.731801 -0.0259123 -2.95817e-10 -4.15047e-10 -3.94117e-09 -2.22167 -0.733487 0.20892 -2.03217e-16 0.0 -3.88251e-19 3.87151 -14.8693 0.6416 -0.348075 33.8443 -0.0257004 1.59764 18.0159 -8.54775 2.03217e-16 0.0 3.88251e-19 3.60085 -51.2269 14.2421 0.294728 35.041 0.245196 1.54708 15.1481 -4.57786
-117.389 84.6506 -26.9605 268.015 86.3365 286.334 -0.76261 29.0758 0.998265 -4.24583 -2.87163 0.52775 3.1652 20.1664 -1.2184 4.80022 -61.4335 1.58773 -0.0 0.0 0.0 -0.0 0.0 0.0 -1.27205e-13 -2.09307e-12 -1.24986e-13 81.6575 29.6412 2.92936 -13.4271 -6.50135 24.4084 -0.0129681 3.24953 0.457187 -4.21678e-11 -4.63442e-10 3.27265e-09 -5.97873e-11 -8.00104e-10 5.65952e-09 -4.2167e-11 -4.63446e-10 3.27264e-09 7.73091 5.47488 0.417314 -4.21671e-11 -4.63445e-10 3.27264e-09 2.90554 0.965183 0.102902 -4.21653e-11 -4.63445e-10 3.27265e-09 10.2786 0.731801 0.0259123 -4.21712e-11 -4.63443e-10 3.27265e-09 2.22167 -0.733487 -0.20892 -1.27248e-13 -2.09307e-12 -1.25334e-13 -80.9345 22.3034 3.71823 13.4079 -6.48645 -24.3702 0.568847 -20.9229 3.08008 -1.07668e-10 -4.34391e-10 -3.57734e-09 -1.40514e-10 -7.59125e-10 -6.1849e-09 -1.07669e-10 -4.34392e-10 -3.57733e-09 -7.73091 5.47488 -0.417314 -1.07667e-10 -4.34392e-10 -3.57735e-09 -2.90554 0.965183 -0.102902 -1.07676e-10 -4.3439e-10 -3.57733e-09 -10.2786 0.731801 -0.0259123 -1.07663e-10 -4.34386e-10 -3.57733e-09 -2.22167 -0.733487 0.20892 -2.03217e-16 0.0 -3.88251e-19 3.25525 -15.8415 0.688239 -0.375672 35.4012 -0.0158125 1.9723 19.6666 -9.0286 2.03217e-16 0.0 3.88251e-19 3.3247 -51.0795 14.4101 0.300945 35.4549 0.235628 1.56669 14.2653 -5.00679
-116.645 84.6168 -27.065 268.674 86.5685 287.265 -1.13603 28.9543 0.918377 -4.20169 -2.87689 0.479056 3.18793 20.1514 -1.22003 4.71001 -61.3988 1.52807 -0.0 0.0 0.0 -0.0 0.0 0.0 -8.62408e-14 -1.85469e-12 -1.07124e-13 81.5659 29.731 3.09994 -13.4292 -6.50296 24.4128 -0.0136229 3.33273 0.468917 -4.99559e-11 -3.898e-10 2.91013e-09 -7.45766e-11 -6.72843e-10 5.03298e-09 -4.99535e-11 -3.89804e-10 2.91012e-09 7.73091 5.47488 0.417314 -4.99549e-11 -3.89804e-10 2.91012e-09 2.90554 0.965183 0.102902 -4.99525e-11 -3.89804e-10 2.91012e-09 10.2786 0.731801 0.0259123 -4.99589e-11 -3.89802e-10 2.91012e-09 2.22167 -0.733487 -0.20892 -8.63049e-14 -1.85558e-12 -1.07498e-13 -80.849 22.3853 3.59736 13.5015 -6.55938 -24.5557 0.580103 -21.1196 3.11181 -1.84782e-10 -3.5726e-10 -3.1822e-09 -2.78418e-10 -6.25435e-10 -5.50366e-09 -1.84784e-10 -3.57262e-10 -3.18218e-09 -7.73091 5.47488 -0.417314 -1.84781e-10 -3.57262e-10 -3.1822e-09 -2.90554 0.965183 -0.102902 -1.84789e-10 -3.5726e-10 -3.18219e-09 -10.2786 0.731801 -0.0259123 -1.84777e-10 -3.57255e-10 -3.18219e-09 -2.22167 -0.733487 0.20892 -2.03217e-16 0.0 -3.88251e-19 2.71356 -16.9075 0.735995 -0.408416 37.0406 -0.00284924 2.37401 21.5283 -9.38952 2.03217e-16 0.0 3.88251e-19 3.21255 -50.9713 14.7676 0.307945 35.8902 0.226381 1.60264 13.4387 -5.55392
